<mxfile host="app.diagrams.net" agent="Mozilla/5.0 (Macintosh; Intel Mac OS X 10_15_7) AppleWebKit/537.36 (KHTML, like Gecko) Chrome/132.0.0.0 Safari/537.36" version="24.8.0">
  <diagram name="Page-1" id="19d8dcba-68ad-dc05-1034-9cf7b2a963f6">
    <mxGraphModel dx="1509" dy="747" grid="1" gridSize="10" guides="1" tooltips="1" connect="1" arrows="1" fold="1" page="1" pageScale="1" pageWidth="1100" pageHeight="850" background="none" math="0" shadow="0">
      <root>
        <mxCell id="0" />
        <mxCell id="1" parent="0" />
        <mxCell id="UAVpCvyNtIPGINxCMyXe-17" style="edgeStyle=orthogonalEdgeStyle;rounded=0;orthogonalLoop=1;jettySize=auto;html=1;exitX=0.5;exitY=1;exitDx=0;exitDy=0;entryX=0.5;entryY=0;entryDx=0;entryDy=0;" edge="1" parent="1" source="UAVpCvyNtIPGINxCMyXe-4" target="UAVpCvyNtIPGINxCMyXe-5">
          <mxGeometry relative="1" as="geometry" />
        </mxCell>
        <mxCell id="UAVpCvyNtIPGINxCMyXe-4" value="Andrew Witty&lt;div&gt;CEO&lt;/div&gt;" style="text;strokeColor=none;align=center;fillColor=none;html=1;verticalAlign=middle;whiteSpace=wrap;rounded=0;" vertex="1" parent="1">
          <mxGeometry x="420" y="130" width="170" height="30" as="geometry" />
        </mxCell>
        <mxCell id="UAVpCvyNtIPGINxCMyXe-18" style="edgeStyle=orthogonalEdgeStyle;rounded=0;orthogonalLoop=1;jettySize=auto;html=1;exitX=0.5;exitY=1;exitDx=0;exitDy=0;entryX=0.5;entryY=0;entryDx=0;entryDy=0;" edge="1" parent="1" source="UAVpCvyNtIPGINxCMyXe-5" target="UAVpCvyNtIPGINxCMyXe-6">
          <mxGeometry relative="1" as="geometry" />
        </mxCell>
        <mxCell id="UAVpCvyNtIPGINxCMyXe-5" value="John F. Rex&lt;div&gt;Pres &amp;amp; CEO&lt;/div&gt;" style="text;strokeColor=none;align=center;fillColor=none;html=1;verticalAlign=middle;whiteSpace=wrap;rounded=0;" vertex="1" parent="1">
          <mxGeometry x="420" y="180" width="170" height="30" as="geometry" />
        </mxCell>
        <mxCell id="UAVpCvyNtIPGINxCMyXe-19" style="edgeStyle=orthogonalEdgeStyle;rounded=0;orthogonalLoop=1;jettySize=auto;html=1;exitX=0.5;exitY=1;exitDx=0;exitDy=0;entryX=0.5;entryY=0;entryDx=0;entryDy=0;" edge="1" parent="1" source="UAVpCvyNtIPGINxCMyXe-6" target="UAVpCvyNtIPGINxCMyXe-7">
          <mxGeometry relative="1" as="geometry" />
        </mxCell>
        <mxCell id="UAVpCvyNtIPGINxCMyXe-6" value="Sandeep Dadlani&lt;div&gt;Chief Digital and Tech Officer&lt;/div&gt;" style="text;strokeColor=none;align=center;fillColor=none;html=1;verticalAlign=middle;whiteSpace=wrap;rounded=0;" vertex="1" parent="1">
          <mxGeometry x="420" y="230" width="170" height="30" as="geometry" />
        </mxCell>
        <mxCell id="UAVpCvyNtIPGINxCMyXe-20" style="edgeStyle=orthogonalEdgeStyle;rounded=0;orthogonalLoop=1;jettySize=auto;html=1;exitX=0.5;exitY=1;exitDx=0;exitDy=0;entryX=0.5;entryY=0;entryDx=0;entryDy=0;" edge="1" parent="1" source="UAVpCvyNtIPGINxCMyXe-7" target="UAVpCvyNtIPGINxCMyXe-8">
          <mxGeometry relative="1" as="geometry" />
        </mxCell>
        <mxCell id="UAVpCvyNtIPGINxCMyXe-7" value="Mahmoud M ELAssir&lt;div&gt;SVC Cloud Infra Eng.&lt;/div&gt;" style="text;strokeColor=none;align=center;fillColor=none;html=1;verticalAlign=middle;whiteSpace=wrap;rounded=0;" vertex="1" parent="1">
          <mxGeometry x="420" y="280" width="170" height="30" as="geometry" />
        </mxCell>
        <mxCell id="UAVpCvyNtIPGINxCMyXe-21" style="edgeStyle=orthogonalEdgeStyle;rounded=0;orthogonalLoop=1;jettySize=auto;html=1;exitX=0.5;exitY=1;exitDx=0;exitDy=0;entryX=0.5;entryY=0;entryDx=0;entryDy=0;" edge="1" parent="1" source="UAVpCvyNtIPGINxCMyXe-8" target="UAVpCvyNtIPGINxCMyXe-9">
          <mxGeometry relative="1" as="geometry" />
        </mxCell>
        <mxCell id="UAVpCvyNtIPGINxCMyXe-22" style="edgeStyle=orthogonalEdgeStyle;rounded=0;orthogonalLoop=1;jettySize=auto;html=1;exitX=1;exitY=0.5;exitDx=0;exitDy=0;entryX=0;entryY=0.5;entryDx=0;entryDy=0;" edge="1" parent="1" source="UAVpCvyNtIPGINxCMyXe-8" target="UAVpCvyNtIPGINxCMyXe-10">
          <mxGeometry relative="1" as="geometry" />
        </mxCell>
        <mxCell id="UAVpCvyNtIPGINxCMyXe-8" value="Peter Gott&lt;div&gt;VP IT&lt;/div&gt;" style="text;strokeColor=none;align=center;fillColor=none;html=1;verticalAlign=middle;whiteSpace=wrap;rounded=0;" vertex="1" parent="1">
          <mxGeometry x="420" y="330" width="170" height="30" as="geometry" />
        </mxCell>
        <mxCell id="UAVpCvyNtIPGINxCMyXe-9" value="Jeff Goedert&lt;div&gt;Sr Dir I O Eng.&lt;/div&gt;" style="text;strokeColor=none;align=center;fillColor=none;html=1;verticalAlign=middle;whiteSpace=wrap;rounded=0;" vertex="1" parent="1">
          <mxGeometry x="420" y="380" width="170" height="30" as="geometry" />
        </mxCell>
        <mxCell id="UAVpCvyNtIPGINxCMyXe-23" style="edgeStyle=orthogonalEdgeStyle;rounded=0;orthogonalLoop=1;jettySize=auto;html=1;exitX=0.5;exitY=1;exitDx=0;exitDy=0;entryX=0;entryY=0.5;entryDx=0;entryDy=0;" edge="1" parent="1" source="UAVpCvyNtIPGINxCMyXe-10" target="UAVpCvyNtIPGINxCMyXe-13">
          <mxGeometry relative="1" as="geometry" />
        </mxCell>
        <mxCell id="UAVpCvyNtIPGINxCMyXe-24" style="edgeStyle=orthogonalEdgeStyle;rounded=0;orthogonalLoop=1;jettySize=auto;html=1;exitX=0.5;exitY=1;exitDx=0;exitDy=0;entryX=1;entryY=0.5;entryDx=0;entryDy=0;" edge="1" parent="1" source="UAVpCvyNtIPGINxCMyXe-10" target="UAVpCvyNtIPGINxCMyXe-11">
          <mxGeometry relative="1" as="geometry" />
        </mxCell>
        <mxCell id="UAVpCvyNtIPGINxCMyXe-10" value="Khaliq Raza&lt;div&gt;VP Software Eng.&lt;/div&gt;" style="text;strokeColor=none;align=center;fillColor=none;html=1;verticalAlign=middle;whiteSpace=wrap;rounded=0;" vertex="1" parent="1">
          <mxGeometry x="730" y="330" width="170" height="30" as="geometry" />
        </mxCell>
        <mxCell id="UAVpCvyNtIPGINxCMyXe-25" style="edgeStyle=orthogonalEdgeStyle;rounded=0;orthogonalLoop=1;jettySize=auto;html=1;exitX=0.5;exitY=1;exitDx=0;exitDy=0;entryX=0.5;entryY=0;entryDx=0;entryDy=0;" edge="1" parent="1" source="UAVpCvyNtIPGINxCMyXe-11" target="UAVpCvyNtIPGINxCMyXe-12">
          <mxGeometry relative="1" as="geometry">
            <Array as="points">
              <mxPoint x="765" y="410" />
            </Array>
          </mxGeometry>
        </mxCell>
        <mxCell id="UAVpCvyNtIPGINxCMyXe-26" style="edgeStyle=orthogonalEdgeStyle;rounded=0;orthogonalLoop=1;jettySize=auto;html=1;exitX=0.5;exitY=1;exitDx=0;exitDy=0;entryX=0.5;entryY=0;entryDx=0;entryDy=0;" edge="1" parent="1" source="UAVpCvyNtIPGINxCMyXe-11" target="UAVpCvyNtIPGINxCMyXe-15">
          <mxGeometry relative="1" as="geometry">
            <Array as="points">
              <mxPoint x="635" y="410" />
            </Array>
          </mxGeometry>
        </mxCell>
        <mxCell id="UAVpCvyNtIPGINxCMyXe-11" value="&lt;div&gt;James Jeyachandran&lt;/div&gt;&lt;div&gt;VP Software Eng.&lt;/div&gt;" style="text;strokeColor=none;align=center;fillColor=none;html=1;verticalAlign=middle;whiteSpace=wrap;rounded=0;" vertex="1" parent="1">
          <mxGeometry x="610" y="380" width="170" height="30" as="geometry" />
        </mxCell>
        <mxCell id="UAVpCvyNtIPGINxCMyXe-12" value="&lt;div&gt;&lt;span style=&quot;background-color: initial;&quot;&gt;Raj&lt;/span&gt;&lt;/div&gt;&lt;div&gt;&lt;span style=&quot;background-color: initial;&quot;&gt;Sr Dir Software Eng.&lt;/span&gt;&lt;/div&gt;" style="text;strokeColor=none;align=center;fillColor=none;html=1;verticalAlign=middle;whiteSpace=wrap;rounded=0;" vertex="1" parent="1">
          <mxGeometry x="680" y="425" width="170" height="30" as="geometry" />
        </mxCell>
        <mxCell id="UAVpCvyNtIPGINxCMyXe-28" style="edgeStyle=orthogonalEdgeStyle;rounded=0;orthogonalLoop=1;jettySize=auto;html=1;exitX=0.5;exitY=1;exitDx=0;exitDy=0;entryX=0.5;entryY=0;entryDx=0;entryDy=0;" edge="1" parent="1" source="UAVpCvyNtIPGINxCMyXe-13" target="UAVpCvyNtIPGINxCMyXe-14">
          <mxGeometry relative="1" as="geometry" />
        </mxCell>
        <mxCell id="UAVpCvyNtIPGINxCMyXe-13" value="&lt;div&gt;Madhan Thirukonda&lt;/div&gt;&lt;div&gt;Dir Tech Prod Mgmt&lt;/div&gt;" style="text;strokeColor=none;align=center;fillColor=none;html=1;verticalAlign=middle;whiteSpace=wrap;rounded=0;" vertex="1" parent="1">
          <mxGeometry x="860" y="380" width="170" height="30" as="geometry" />
        </mxCell>
        <mxCell id="UAVpCvyNtIPGINxCMyXe-14" value="&lt;div&gt;&lt;span style=&quot;background-color: initial;&quot;&gt;Jenifer Murphy&lt;/span&gt;&lt;/div&gt;&lt;div&gt;&lt;span style=&quot;background-color: initial;&quot;&gt;Lead Tech Prod Mgr&lt;/span&gt;&lt;/div&gt;" style="text;strokeColor=none;align=center;fillColor=none;html=1;verticalAlign=middle;whiteSpace=wrap;rounded=0;" vertex="1" parent="1">
          <mxGeometry x="860" y="425" width="170" height="30" as="geometry" />
        </mxCell>
        <mxCell id="UAVpCvyNtIPGINxCMyXe-27" style="edgeStyle=orthogonalEdgeStyle;rounded=0;orthogonalLoop=1;jettySize=auto;html=1;exitX=0.5;exitY=1;exitDx=0;exitDy=0;entryX=0.5;entryY=0;entryDx=0;entryDy=0;" edge="1" parent="1" source="UAVpCvyNtIPGINxCMyXe-15" target="UAVpCvyNtIPGINxCMyXe-16">
          <mxGeometry relative="1" as="geometry" />
        </mxCell>
        <mxCell id="UAVpCvyNtIPGINxCMyXe-15" value="&lt;div&gt;Lisa M Cime&lt;/div&gt;&lt;div&gt;Sr Dir Tech&lt;/div&gt;" style="text;strokeColor=none;align=center;fillColor=none;html=1;verticalAlign=middle;whiteSpace=wrap;rounded=0;" vertex="1" parent="1">
          <mxGeometry x="550" y="425" width="170" height="30" as="geometry" />
        </mxCell>
        <mxCell id="UAVpCvyNtIPGINxCMyXe-16" value="&lt;div&gt;Lakshmi Sampath Kumar&lt;/div&gt;&lt;div&gt;Dir Software Eng.&lt;/div&gt;" style="text;strokeColor=none;align=center;fillColor=none;html=1;verticalAlign=middle;whiteSpace=wrap;rounded=0;" vertex="1" parent="1">
          <mxGeometry x="550" y="470" width="170" height="30" as="geometry" />
        </mxCell>
      </root>
    </mxGraphModel>
  </diagram>
</mxfile>
